# xmcd
#
# Track frame offsets: 
#        150
#        9872
#        23005
#        34307
#        44761
#        57412
#        70177
#        80690
#        89875
#        98523
#        110717
#        119645
#        132179
#        142014
#        152216
#        165605
#        177010
#        187631
#        196430
#        208216
#
# Disc length: 2953 seconds
#
# Revision: 2
# Processed by: cddbd v1.5.2PL0 Copyright (c) Steve Scherf et al.
# Submitted via: ExactAudioCopy v1.3
#
DISCID=1f0b8714
DTITLE=Various Artist - 120 % Heroes Of Country CD2
DYEAR=2004
DGENRE=Country
TTITLE0=Johnny Cash - Rock Island Line
TTITLE1=Billie Jo Spears - It Coulda Been Me
TTITLE2=Patsy Cline - Crazy Dreams
TTITLE3=Faron Young - If You Ain't Lovin'
TTITLE4=Freddy Fender - Since I Met You Baby
TTITLE5=Gene Autry - South Of The Border
TTITLE6=Waylon Jennings - Dream Baby
TTITLE7=Dolly Parton - Girl Left Alone
TTITLE8=Buck Owens - After The Dance
TTITLE9=Hank Williams - (Last Night) I Heard You Crying In Your Sleep
TTITLE10=Lynn Anderson - Ride, Ride, Ride
TTITLE11=Roger Miller - The Last Word In Lonesome Is Me
TTITLE12=Skeeter Davis - I Can't Stay Mad At You
TTITLE13=Slim Whitman - Any Time
TTITLE14=Merle Haggard - Cherokee Maiden
TTITLE15=Willie Nelson - Suffering In Silence
TTITLE16=Ferlin Husky - Gone
TTITLE17=Faron Young - Alone With You
TTITLE18=Skeeter Davis - I Can't Help You (I'm Falling Too)
TTITLE19=Johnny Paycheck - Someone To Give My Love To
EXTD=YEAR: 2004
EXTT0=
EXTT1=
EXTT2=
EXTT3=
EXTT4=
EXTT5=
EXTT6=
EXTT7=
EXTT8=
EXTT9=
EXTT10=
EXTT11=
EXTT12=
EXTT13=
EXTT14=
EXTT15=
EXTT16=
EXTT17=
EXTT18=
EXTT19=
PLAYORDER=
